<?xml version="1.0" encoding="UTF-8" standalone="no"?>
<!-- Generated by IcoMoon.io -->

<svg
   version="1.1"
   width="32"
   height="32"
   viewBox="0 0 32 32"
   id="svg6"
   sodipodi:docname="duckduckgo.svg"
   inkscape:version="1.1 (c4e8f9ed74, 2021-05-24)"
   xmlns:inkscape="http://www.inkscape.org/namespaces/inkscape"
   xmlns:sodipodi="http://sodipodi.sourceforge.net/DTD/sodipodi-0.dtd"
   xmlns="http://www.w3.org/2000/svg"
   xmlns:svg="http://www.w3.org/2000/svg">
  <defs
     id="defs10" />
  <sodipodi:namedview
     id="namedview8"
     pagecolor="#ffffff"
     bordercolor="#666666"
     borderopacity="1.0"
     inkscape:pageshadow="2"
     inkscape:pageopacity="0.0"
     inkscape:pagecheckerboard="0"
     showgrid="false"
     inkscape:zoom="17.625"
     inkscape:cx="16"
     inkscape:cy="16"
     inkscape:window-width="661"
     inkscape:window-height="708"
     inkscape:window-x="689"
     inkscape:window-y="812"
     inkscape:window-maximized="1"
     inkscape:current-layer="svg6" />
  <title
     id="title2">duckduckgo</title>
  <path
     fill="#de5833"
     d="M 16,0 C 7.164,0 0,7.164 0,16 0,24.836 7.164,32 16,32 24.836,32 32,24.836 32,16 32,7.164 24.836,0 16,0 Z m 0,30.667 C 7.9,30.667 1.333,24.099 1.333,16 1.333,7.901 7.901,1.333 16,1.333 24.099,1.333 30.667,7.9 30.667,16 30.667,24.1 24.1,30.667 16,30.667 Z M 29.625,16 c 0,6.407 -4.423,11.777 -10.381,13.233 -0.36,-0.695 -0.707,-1.356 -0.999,-1.917 0.86,0.332 2.573,0.957 2.944,0.82 0.501,-0.192 0.376,-4.199 -0.187,-4.327 -0.451,-0.1 -2.176,1.116 -2.855,1.612 l 0.045,0.208 c 0.104,0.529 0.192,1.324 0.04,1.663 -10e-4,0.005 -0.003,0.013 -0.005,0.017 -0.02,0.047 -0.051,0.087 -0.09,0.117 h -0.001 c -0.379,0.251 -1.441,0.379 -2.004,0.251 -0.034,-0.008 -0.062,-0.017 -0.09,-0.028 l 0.005,0.002 c -0.925,0.528 -2.68,1.479 -3,1.295 -0.439,-0.251 -0.503,-3.568 -0.439,-4.384 0.047,-0.613 2.204,0.381 3.256,0.905 0.232,-0.217 0.803,-0.363 1.307,-0.413 -0.76,-1.852 -1.32,-3.969 -0.977,-5.473 0,0.003 0.003,0.003 0.003,0.003 0.475,0.331 3.64,1.4 5.213,1.369 1.573,-0.032 4.152,-0.991 3.871,-1.764 -0.283,-0.773 -2.847,0.68 -5.523,0.432 -1.981,-0.184 -2.331,-1.072 -1.893,-1.72 0.552,-0.815 1.557,0.155 3.215,-0.341 1.66,-0.495 3.983,-1.38 4.843,-1.863 1.992,-1.111 -0.833,-1.569 -1.5,-1.263 -0.632,0.293 -2.831,0.849 -3.852,1.093 C 21.142,13.506 19.767,9.995 18.228,8.46 17.727,7.959 16.96,7.644 16.091,7.479 15.758,7.02 15.219,6.584 14.458,6.176 13.423,5.624 12.195,5.299 10.89,5.299 c -0.433,0 -0.857,0.036 -1.271,0.104 L 9.664,5.397 9.632,5.402 9.587,5.407 9.592,5.41 C 9.395,5.447 9.276,5.517 9.116,5.541 9.313,5.562 10.056,5.909 10.525,6.098 10.293,6.189 9.976,6.242 9.73,6.343 9.628,6.358 9.537,6.384 9.451,6.42 L 9.458,6.417 c -0.231,0.107 -0.404,0.5 -0.4,0.687 1.12,-0.115 2.776,-0.035 3.988,0.328 -0.859,0.12 -1.647,0.344 -2.215,0.643 -0.021,0.011 -0.04,0.024 -0.064,0.037 -0.072,0.027 -0.141,0.056 -0.203,0.088 -1.823,0.96 -2.628,3.207 -2.148,5.899 0.431,2.432 2.22,10.784 3.053,14.752 -5.297,-1.867 -9.096,-6.915 -9.096,-12.852 0,-7.525 6.1,-13.625 13.625,-13.625 7.525,0 13.625,6.1 13.625,13.625 z M 12.127,12.775 c -0.558,0 -1.011,0.453 -1.011,1.011 0,0.558 0.453,1.011 1.011,1.011 v 0 c 0.558,0 1.011,-0.453 1.011,-1.011 0,-0.558 -0.453,-1.011 -1.011,-1.011 z m 0.45,0.936 c -0.144,0 -0.261,-0.117 -0.261,-0.261 0,-0.144 0.117,-0.261 0.261,-0.261 v 0 c 0.144,0 0.261,0.117 0.261,0.261 0,0.144 -0.117,0.261 -0.261,0.261 z m 6.299,-1.391 c -0.01,0 -0.022,-10e-4 -0.034,-10e-4 -0.479,0 -0.867,0.388 -0.867,0.867 0,0.479 0.388,0.867 0.867,0.867 0.012,0 0.024,0 0.036,-0.001 h -0.002 c 0.464,-0.019 0.833,-0.399 0.833,-0.866 0,-0.467 -0.369,-0.847 -0.831,-0.866 z m 0.387,0.801 c -0.124,0 -0.224,-0.1 -0.224,-0.224 0,-0.124 0.1,-0.224 0.224,-0.224 v 0 c 0.124,0 0.224,0.1 0.224,0.224 0,0.124 -0.1,0.224 -0.224,0.224 z m -6.846,-2.26 c 0,0 -0.761,-0.347 -1.5,0.12 -0.739,0.464 -0.712,0.939 -0.712,0.939 0,0 -0.392,-0.875 0.653,-1.304 1.048,-0.427 1.56,0.245 1.559,0.245 z m 6.982,-0.069 c 0,0 -0.547,-0.312 -0.973,-0.307 -0.872,0.011 -1.108,0.395 -1.108,0.395 0,0 0.147,-0.917 1.26,-0.733 0.369,0.069 0.67,0.312 0.818,0.638 z"
     id="path4"
     style="fill:#ffffff" />
</svg>
